<?xml version="1.0" encoding="UTF-8"?>
<svg xmlns="http://www.w3.org/2000/svg" xmlns:xlink="http://www.w3.org/1999/xlink" viewBox="0 0 512 512" width="512px" height="512px">
<g id="surface2559308">
<path style=" stroke:none;fill-rule:nonzero;fill:rgb(100%,100%,100%);fill-opacity:1;" d="M 336 32 C 256.625 32 192 96.625 192 176 C 192 209.875 204.25 240.75 224 265.375 L 64.75 424.625 L 87.25 447.375 L 246.625 288 C 271.25 307.75 302.125 320 336 320 C 415.375 320 480 255.375 480 176 C 480 96.625 415.375 32 336 32 Z M 336 64 C 398 64 448 114 448 176 C 448 238 398 288 336 288 C 274 288 224 238 224 176 C 224 114 274 64 336 64 Z M 336 64 "/>
</g>
</svg>
